<svg width="288" height="47" viewBox="0 0 288 47" fill="none" xmlns="http://www.w3.org/2000/svg">
<path d="M12.736 35.576C10.272 35.576 8.096 35.16 6.208 34.328C4.32 33.464 2.832 32.248 1.744 30.68C0.656 29.08 0.0960001 27.144 0.0640001 24.872H6.544C6.608 26.44 7.168 27.768 8.224 28.856C9.312 29.912 10.8 30.44 12.688 30.44C14.32 30.44 15.616 30.056 16.576 29.288C17.536 28.488 18.016 27.432 18.016 26.12C18.016 24.744 17.584 23.672 16.72 22.904C15.888 22.136 14.768 21.512 13.36 21.032C11.952 20.552 10.448 20.04 8.848 19.496C6.256 18.6 4.272 17.448 2.896 16.04C1.552 14.632 0.88 12.76 0.88 10.424C0.848 8.44 1.312 6.744 2.272 5.336C3.264 3.896 4.608 2.792 6.304 2.024C8 1.224 9.952 0.823999 12.16 0.823999C14.4 0.823999 16.368 1.224 18.064 2.024C19.792 2.824 21.136 3.944 22.096 5.384C23.088 6.824 23.616 8.536 23.68 10.52H17.104C17.072 9.336 16.608 8.296 15.712 7.4C14.848 6.472 13.632 6.008 12.064 6.008C10.72 5.976 9.584 6.312 8.656 7.016C7.76 7.688 7.312 8.68 7.312 9.992C7.312 11.112 7.664 12.008 8.368 12.68C9.072 13.32 10.032 13.864 11.248 14.312C12.464 14.76 13.856 15.24 15.424 15.752C17.088 16.328 18.608 17 19.984 17.768C21.36 18.536 22.464 19.56 23.296 20.84C24.128 22.088 24.544 23.704 24.544 25.688C24.544 27.448 24.096 29.08 23.2 30.584C22.304 32.088 20.976 33.304 19.216 34.232C17.456 35.128 15.296 35.576 12.736 35.576ZM27.8406 35V0.439999H33.9846V14.84C34.7846 13.528 35.8566 12.504 37.2006 11.768C38.5766 11 40.1446 10.616 41.9046 10.616C44.8486 10.616 47.1206 11.544 48.7206 13.4C50.3526 15.256 51.1686 17.976 51.1686 21.56V35H45.0726V22.136C45.0726 20.088 44.6566 18.52 43.8246 17.432C43.0246 16.344 41.7446 15.8 39.9846 15.8C38.2566 15.8 36.8166 16.408 35.6646 17.624C34.5446 18.84 33.9846 20.536 33.9846 22.712V35H27.8406ZM66.5477 35.576C64.2438 35.576 62.1638 35.048 60.3078 33.992C58.4838 32.936 57.0278 31.48 55.9397 29.624C54.8837 27.736 54.3557 25.56 54.3557 23.096C54.3557 20.632 54.8997 18.472 55.9878 16.616C57.0758 14.728 58.5318 13.256 60.3558 12.2C62.2118 11.144 64.2918 10.616 66.5958 10.616C68.8678 10.616 70.9158 11.144 72.7398 12.2C74.5958 13.256 76.0518 14.728 77.1077 16.616C78.1958 18.472 78.7398 20.632 78.7398 23.096C78.7398 25.56 78.1958 27.736 77.1077 29.624C76.0518 31.48 74.5958 32.936 72.7398 33.992C70.8838 35.048 68.8198 35.576 66.5477 35.576ZM66.5477 30.248C68.1478 30.248 69.5398 29.656 70.7238 28.472C71.9078 27.256 72.4998 25.464 72.4998 23.096C72.4998 20.728 71.9078 18.952 70.7238 17.768C69.5398 16.552 68.1638 15.944 66.5958 15.944C64.9638 15.944 63.5558 16.552 62.3718 17.768C61.2198 18.952 60.6438 20.728 60.6438 23.096C60.6438 25.464 61.2198 27.256 62.3718 28.472C63.5558 29.656 64.9478 30.248 66.5477 30.248ZM82.3131 45.56V11.192H87.7851L88.4571 14.6C89.2251 13.544 90.2331 12.616 91.4811 11.816C92.7611 11.016 94.4091 10.616 96.4251 10.616C98.6651 10.616 100.665 11.16 102.425 12.248C104.185 13.336 105.577 14.824 106.601 16.712C107.625 18.6 108.137 20.744 108.137 23.144C108.137 25.544 107.625 27.688 106.601 29.576C105.577 31.432 104.185 32.904 102.425 33.992C100.665 35.048 98.6651 35.576 96.4251 35.576C94.6331 35.576 93.0651 35.24 91.7211 34.568C90.3771 33.896 89.2891 32.952 88.4571 31.736V45.56H82.3131ZM95.1291 30.2C97.0811 30.2 98.6971 29.544 99.9771 28.232C101.257 26.92 101.897 25.224 101.897 23.144C101.897 21.064 101.257 19.352 99.9771 18.008C98.6971 16.664 97.0811 15.992 95.1291 15.992C93.1451 15.992 91.5131 16.664 90.2331 18.008C88.9851 19.32 88.3611 21.016 88.3611 23.096C88.3611 25.176 88.9851 26.888 90.2331 28.232C91.5131 29.544 93.1451 30.2 95.1291 30.2ZM111.706 45.56V11.192H117.178L117.85 14.6C118.618 13.544 119.626 12.616 120.874 11.816C122.154 11.016 123.802 10.616 125.818 10.616C128.058 10.616 130.058 11.16 131.818 12.248C133.578 13.336 134.97 14.824 135.994 16.712C137.018 18.6 137.53 20.744 137.53 23.144C137.53 25.544 137.018 27.688 135.994 29.576C134.97 31.432 133.578 32.904 131.818 33.992C130.058 35.048 128.058 35.576 125.818 35.576C124.026 35.576 122.458 35.24 121.114 34.568C119.77 33.896 118.682 32.952 117.85 31.736V45.56H111.706ZM124.522 30.2C126.474 30.2 128.09 29.544 129.37 28.232C130.65 26.92 131.29 25.224 131.29 23.144C131.29 21.064 130.65 19.352 129.37 18.008C128.09 16.664 126.474 15.992 124.522 15.992C122.538 15.992 120.906 16.664 119.626 18.008C118.378 19.32 117.754 21.016 117.754 23.096C117.754 25.176 118.378 26.888 119.626 28.232C120.906 29.544 122.538 30.2 124.522 30.2ZM144.41 7.496C143.29 7.496 142.362 7.16 141.626 6.488C140.922 5.816 140.57 4.968 140.57 3.944C140.57 2.92 140.922 2.088 141.626 1.448C142.362 0.775998 143.29 0.439999 144.41 0.439999C145.53 0.439999 146.442 0.775998 147.146 1.448C147.882 2.088 148.25 2.92 148.25 3.944C148.25 4.968 147.882 5.816 147.146 6.488C146.442 7.16 145.53 7.496 144.41 7.496ZM141.338 35V11.192H147.482V35H141.338ZM151.975 35V11.192H157.399L157.879 15.224C158.615 13.816 159.671 12.696 161.047 11.864C162.455 11.032 164.103 10.616 165.991 10.616C168.935 10.616 171.223 11.544 172.855 13.4C174.487 15.256 175.303 17.976 175.303 21.56V35H169.159V22.136C169.159 20.088 168.743 18.52 167.911 17.432C167.079 16.344 165.783 15.8 164.023 15.8C162.295 15.8 160.871 16.408 159.751 17.624C158.663 18.84 158.119 20.536 158.119 22.712V35H151.975ZM189.338 27.896C188.186 27.896 187.114 27.768 186.122 27.512L184.346 29.288C184.89 29.576 185.626 29.816 186.554 30.008C187.482 30.2 188.986 30.392 191.066 30.584C194.234 30.872 196.538 31.624 197.978 32.84C199.418 34.056 200.138 35.736 200.138 37.88C200.138 39.288 199.754 40.616 198.986 41.864C198.218 43.144 197.034 44.168 195.434 44.936C193.834 45.736 191.786 46.136 189.29 46.136C185.898 46.136 183.162 45.496 181.082 44.216C179.002 42.968 177.962 41.08 177.962 38.552C177.962 36.408 179.002 34.552 181.082 32.984C180.442 32.696 179.882 32.392 179.402 32.072C178.954 31.752 178.554 31.416 178.202 31.064V29.96L182.378 25.544C180.522 23.912 179.594 21.816 179.594 19.256C179.594 17.656 179.978 16.2 180.746 14.888C181.546 13.576 182.666 12.536 184.106 11.768C185.546 11 187.29 10.616 189.338 10.616C190.682 10.616 191.93 10.808 193.082 11.192H202.106V14.936L198.026 15.224C198.666 16.44 198.986 17.784 198.986 19.256C198.986 20.856 198.602 22.312 197.834 23.624C197.066 24.936 195.946 25.976 194.474 26.744C193.034 27.512 191.322 27.896 189.338 27.896ZM189.338 23.192C190.586 23.192 191.61 22.856 192.41 22.184C193.242 21.512 193.658 20.552 193.658 19.304C193.658 18.056 193.242 17.096 192.41 16.424C191.61 15.752 190.586 15.416 189.338 15.416C188.026 15.416 186.97 15.752 186.17 16.424C185.37 17.096 184.97 18.056 184.97 19.304C184.97 20.552 185.37 21.512 186.17 22.184C186.97 22.856 188.026 23.192 189.338 23.192ZM183.578 37.928C183.578 39.112 184.122 39.992 185.21 40.568C186.33 41.176 187.69 41.48 189.29 41.48C190.826 41.48 192.074 41.16 193.034 40.52C193.994 39.912 194.474 39.08 194.474 38.024C194.474 37.16 194.154 36.44 193.514 35.864C192.906 35.288 191.674 34.936 189.818 34.808C188.506 34.712 187.29 34.568 186.17 34.376C185.242 34.888 184.57 35.448 184.154 36.056C183.77 36.664 183.578 37.288 183.578 37.928Z" fill="#111111"/>
<path d="M214.328 35V1.4H220.472V30.2H235.352V35H214.328ZM242.013 7.496C240.893 7.496 239.965 7.16 239.229 6.488C238.525 5.816 238.173 4.968 238.173 3.944C238.173 2.92 238.525 2.088 239.229 1.448C239.965 0.775998 240.893 0.439999 242.013 0.439999C243.133 0.439999 244.045 0.775998 244.749 1.448C245.485 2.088 245.853 2.92 245.853 3.944C245.853 4.968 245.485 5.816 244.749 6.488C244.045 7.16 243.133 7.496 242.013 7.496ZM238.941 35V11.192H245.085V35H238.941ZM259.418 35.576C257.306 35.576 255.45 35.24 253.85 34.568C252.25 33.864 250.97 32.904 250.01 31.688C249.05 30.472 248.474 29.064 248.282 27.464H254.474C254.666 28.392 255.178 29.192 256.01 29.864C256.874 30.504 257.978 30.824 259.322 30.824C260.666 30.824 261.642 30.552 262.25 30.008C262.89 29.464 263.21 28.84 263.21 28.136C263.21 27.112 262.762 26.424 261.866 26.072C260.97 25.688 259.722 25.32 258.122 24.968C257.098 24.744 256.058 24.472 255.002 24.152C253.946 23.832 252.97 23.432 252.074 22.952C251.21 22.44 250.506 21.8 249.962 21.032C249.418 20.232 249.146 19.256 249.146 18.104C249.146 15.992 249.978 14.216 251.642 12.776C253.338 11.336 255.706 10.616 258.746 10.616C261.562 10.616 263.802 11.272 265.466 12.584C267.162 13.896 268.17 15.704 268.49 18.008H262.682C262.33 16.248 261.002 15.368 258.698 15.368C257.546 15.368 256.65 15.592 256.01 16.04C255.402 16.488 255.098 17.048 255.098 17.72C255.098 18.424 255.562 18.984 256.49 19.4C257.418 19.816 258.65 20.2 260.186 20.552C261.85 20.936 263.37 21.368 264.746 21.848C266.154 22.296 267.274 22.984 268.106 23.912C268.938 24.808 269.354 26.104 269.354 27.8C269.386 29.272 269.002 30.6 268.202 31.784C267.402 32.968 266.25 33.896 264.746 34.568C263.242 35.24 261.466 35.576 259.418 35.576ZM282.735 35C280.239 35 278.239 34.392 276.735 33.176C275.231 31.96 274.479 29.8 274.479 26.696V16.328H270.399V11.192H274.479L275.199 4.808H280.623V11.192H287.055V16.328H280.623V26.744C280.623 27.896 280.863 28.696 281.343 29.144C281.855 29.56 282.719 29.768 283.935 29.768H286.911V35H282.735Z" fill="#4F2EE8"/>
</svg>
