<svg aria-hidden="true" style="width:0;height:0;position:absolute;overflow:hidden" xmlns="http://www.w3.org/2000/svg"><defs><symbol id="shopping-cart" viewBox="0 0 32 32"><path d="M25.334 9.333h-4V8a5.332 5.332 0 1 0-10.666 0v1.333h-4a1.335 1.335 0 0 0-1.334 1.334v14.667a4.003 4.003 0 0 0 4 4h13.333a4.003 4.003 0 0 0 4-4V10.667a1.335 1.335 0 0 0-1.334-1.334zM13.334 8a2.668 2.668 0 0 1 5.334 0v1.333h-5.333V8zM24 25.333a1.335 1.335 0 0 1-1.334 1.334H9.333a1.335 1.335 0 0 1-1.334-1.334V12h2.667v1.333a1.335 1.335 0 0 0 2.277.943c.25-.251.39-.589.39-.943V12h5.333v1.333a1.335 1.335 0 0 0 2.277.943c.25-.251.391-.589.391-.943V12h2.667v13.333z"/></symbol><symbol id="Icon" viewBox="0 0 34 32"><path d="M33.311 7.713a15.859 15.859 0 0 0-2.281-1.001v19.742a15.182 15.182 0 0 0-5.43-1.017c-2.948 0-5.865.886-8.533 2.593V8.174c-2.514-1.526-5.415-2.429-8.533-2.429A16.2 16.2 0 0 0 .823 7.714c-.512.263-.822.837-.822 1.444v19.824c0 .952.729 1.625 1.552 1.625.248 0 .496-.066.745-.197 1.877-1.034 3.987-1.69 6.237-1.69 3.212 0 6.175 1.346 8.533 3.282 2.358-1.936 5.322-3.282 8.533-3.282 2.25 0 4.36.656 6.237 1.707.248.131.496.197.745.197.807 0 1.551-.673 1.551-1.625V9.159c0-.607-.31-1.182-.822-1.444zm-19.347 18.74c-1.769-.673-3.584-1.017-5.43-1.017s-3.662.345-5.43 1.017V10.19a13.166 13.166 0 0 1 5.43-1.165c1.862 0 3.708.41 5.43 1.182v16.246zM27.927 0l-7.758 8.205v15.59l7.758-7.385V0z"/></symbol><symbol id="arrow-up" viewBox="0 0 32 32"><path d="M4.5 19.6 15.7 8.367c.133-.133.278-.228.433-.283s.322-.084.5-.084.345.028.5.084.3.149.433.283L28.799 19.6c.311.311.467.7.467 1.167s-.167.867-.5 1.2c-.333.333-.722.5-1.167.5s-.833-.167-1.167-.5l-9.8-9.8-9.8 9.8c-.311.311-.694.467-1.149.467s-.851-.167-1.184-.5-.5-.722-.5-1.167c0-.444.167-.833.5-1.167z"/></symbol><symbol id="ri_user-fill" viewBox="0 0 32 32"><path d="M5.333 29.333a10.662 10.662 0 0 1 18.208-7.543c2 2 3.124 4.714 3.124 7.543H5.332zm10.667-12c-4.42 0-8-3.58-8-8s3.58-8 8-8 8 3.58 8 8-3.58 8-8 8z"/></symbol><symbol id="trash-03" viewBox="0 0 32 32"><path stroke-linejoin="round" stroke-linecap="round" stroke-width="2.909" d="M12 4h8M4 8h24m-2.667 0-.935 14.026c-.14 2.104-.21 3.157-.665 3.954a4 4 0 0 1-1.731 1.619c-.826.4-1.881.4-3.99.4h-4.025c-2.109 0-3.163 0-3.99-.4a4.005 4.005 0 0 1-1.731-1.619c-.455-.798-.525-1.85-.665-3.954L6.666 8m6.667 6v6.667M18.667 14v6.667"/></symbol><symbol id="lock-02" viewBox="0 0 32 32"><path stroke-linejoin="round" stroke-linecap="round" stroke-width="2.286" d="M22.667 14.667v-4a6.667 6.667 0 0 0-13.334 0v4M10.4 28h11.2c2.24 0 3.36 0 4.216-.436a3.991 3.991 0 0 0 1.748-1.748C28 24.96 28 23.84 28 21.6v-.533c0-2.24 0-3.36-.436-4.216a3.991 3.991 0 0 0-1.748-1.748c-.856-.436-1.976-.436-4.216-.436H10.4c-2.24 0-3.36 0-4.216.436a3.996 3.996 0 0 0-1.748 1.748C4 17.707 4 18.827 4 21.067v.533c0 2.24 0 3.36.436 4.216a3.991 3.991 0 0 0 1.748 1.748C7.04 28 8.16 28 10.4 28z"/></symbol><symbol id="mail-02" viewBox="0 0 32 32"><path stroke-linejoin="round" stroke-linecap="round" stroke-width="2.286" d="m28.666 24-8.857-8m-7.619 0-8.857 8M2.667 9.333l10.887 7.621c.882.617 1.322.926 1.802 1.045.423.106.866.106 1.29 0 .479-.12.92-.428 1.802-1.045l10.887-7.621M9.067 26.667h13.867c2.24 0 3.36 0 4.216-.436a3.996 3.996 0 0 0 1.748-1.748c.436-.856.436-1.976.436-4.216v-8.533c0-2.24 0-3.36-.436-4.216A3.991 3.991 0 0 0 27.15 5.77c-.856-.436-1.976-.436-4.216-.436H9.067c-2.24 0-3.36 0-4.216.436a3.991 3.991 0 0 0-1.748 1.748c-.436.856-.436 1.976-.436 4.216v8.533c0 2.24 0 3.36.436 4.216a3.996 3.996 0 0 0 1.748 1.748c.856.436 1.976.436 4.216.436z"/></symbol><symbol id="align-left" viewBox="0 0 32 32"><path stroke-linejoin="round" stroke-linecap="round" stroke-width="2.286" d="M22.667 13.333H4M28 8H4M28 18.667H4M22.667 24H4"/></symbol><symbol id="x-close" viewBox="0 0 32 32"><path stroke-linejoin="round" stroke-linecap="round" stroke-width="3.429" d="M24 8 8 24M8 8l16 16"/></symbol><symbol id="arrow-right" viewBox="0 0 32 32"><path stroke-linejoin="round" stroke-linecap="round" stroke-width="3.2" d="M5.333 16h21.333m.001 0-8-8m8 8-8 8"/></symbol><symbol id="Bookshelf" viewBox="0 0 178 32"><path d="M22.176 8.533c0-4.731-3.497-7.406-9.545-7.406H0v29.417h13.33c6.089 0 9.998-2.921 9.998-8.599 0-4.402-2.633-6.665-5.719-7.2v-.082c2.427-.823 4.567-2.51 4.567-6.13zm-17.28 4.772V5.282h7.858c2.921 0 4.526 1.44 4.526 4.032s-1.317 3.991-4.814 3.991h-7.57zm0 3.662h8.599c3.086 0 4.937 1.687 4.937 4.69 0 2.757-1.275 4.731-5.472 4.731H4.896v-9.422zM35.89 31.161c-6.583 0-10.574-4.567-10.574-11.109S29.307 8.943 35.89 8.943s10.574 4.567 10.574 11.109-3.991 11.109-10.574 11.109zm0-3.538c4.114 0 6.254-3.25 6.254-7.57 0-4.361-2.139-7.57-6.254-7.57s-6.254 3.209-6.254 7.57c0 4.32 2.139 7.57 6.254 7.57zM58.912 31.161c-6.583 0-10.574-4.567-10.574-11.109S52.329 8.943 58.912 8.943s10.574 4.567 10.574 11.109-3.991 11.109-10.574 11.109zm0-3.538c4.114 0 6.254-3.25 6.254-7.57 0-4.361-2.139-7.57-6.254-7.57s-6.254 3.209-6.254 7.57c0 4.32 2.139 7.57 6.254 7.57zM72.472 1.127v29.417h4.32v-7.611l2.921-2.757 6.624 10.368h5.184l-8.846-13.207 7.982-7.817H85.35l-8.558 8.434V1.127h-4.32zM101.935 17.831c-3.045-.699-5.39-.864-5.39-3.003 0-1.481 1.399-2.469 3.991-2.469 3.374 0 4.197 1.687 4.485 3.333h4.197c-.288-3.662-3.003-6.747-8.722-6.747-5.266 0-8.311 2.757-8.311 6.213 0 4.773 4.526 5.431 7.858 6.213 3.086.741 5.595.946 5.595 3.579 0 1.317-1.275 2.798-4.279 2.798-4.443 0-5.431-1.934-5.637-4.197h-4.197c.206 4.443 3.127 7.611 9.915 7.611 5.102 0 8.558-2.51 8.558-6.542 0-5.019-4.197-5.883-8.064-6.789zM124.123 8.944c-3.538 0-5.719 1.646-6.83 3.291h-.082V1.126h-4.32v29.417h4.32V17.748c0-3.127 2.263-5.143 5.431-5.143 3.003 0 4.197 1.81 4.197 4.649v13.289h4.361V16.02c0-4.814-3.086-7.077-7.077-7.077zM144.448 27.623c-3.826 0-6.089-2.921-6.089-6.459h16.128c0-7.488-3.333-12.219-10.121-12.219-6.336 0-10.327 4.279-10.327 11.109 0 6.583 3.991 11.109 10.533 11.109 5.39 0 8.517-3.045 9.586-7.035h-4.32c-.37 1.275-1.81 3.497-5.39 3.497zm-.082-15.264c3.497 0 5.801 2.345 5.801 5.595h-11.808c0-3.25 2.51-5.595 6.007-5.595zM157.531 1.127v29.417h4.361V1.127h-4.361zM176.003 4.665V1.127a15.12 15.12 0 0 0-2.88-.288c-3.456 0-5.349 1.563-5.349 6.007V9.52h-3.003v3.538h3.003v17.486h4.361V13.058h3.867V9.52h-3.867V7.216c0-2.386 1.07-2.674 3.867-2.551z"/></symbol></defs></svg>