<svg xmlns="http://www.w3.org/2000/svg" aria-hidden="true" style="width:0;height:0;position:absolute;overflow:hidden"><defs><symbol id="icon-logobig" viewBox="0 0 31 32"><path d="m0 .615 15.714 15.549 15.055 15.22V.615H0z"/><path d="m4.286 4.681 11.483 11.374 10.824 11.044H4.285V4.681z"/><path d="M26.666 27.171 15.182 15.797 4.358 4.753h22.308v22.418z"/><path d="m8.901 9.297 13.077 13.077H8.901V9.297z"/><path d="m8.901 9.297 13.077 13.077V9.297H8.901z"/></symbol><symbol id="icon-logo" viewBox="0 0 32 32"><path d="m0 0 16.343 16.172L32 32V0H0z"/><path d="M4.457 4.229 16.4 16.058l11.257 11.486h-23.2V4.23z"/><path d="M27.733 27.618 15.79 15.789 4.533 4.303h23.2v23.314z"/><path d="m9.257 9.029 13.6 13.6h-13.6v-13.6z"/><path d="m9.257 9.029 13.6 13.6v-13.6h-13.6z"/></symbol><symbol id="icon-mail-02" viewBox="0 0 32 32"><path stroke-linecap="round" stroke-linejoin="round" stroke-width="2.286" d="m28.666 24-8.857-8m-7.619 0-8.857 8M2.667 9.333l10.887 7.621c.882.617 1.322.926 1.802 1.045.423.106.866.106 1.29 0 .479-.12.92-.428 1.802-1.045l10.887-7.621M9.067 26.667h13.867c2.24 0 3.36 0 4.216-.436a3.996 3.996 0 0 0 1.748-1.748c.436-.856.436-1.976.436-4.216v-8.533c0-2.24 0-3.36-.436-4.216A3.991 3.991 0 0 0 27.15 5.77c-.856-.436-1.976-.436-4.216-.436H9.067c-2.24 0-3.36 0-4.216.436a3.991 3.991 0 0 0-1.748 1.748c-.436.856-.436 1.976-.436 4.216v8.533c0 2.24 0 3.36.436 4.216a3.996 3.996 0 0 0 1.748 1.748c.856.436 1.976.436 4.216.436z"/></symbol><symbol id="icon-lock-02" viewBox="0 0 32 32"><path stroke-linecap="round" stroke-linejoin="round" stroke-width="2.286" d="M22.667 14.667v-4a6.667 6.667 0 0 0-13.334 0v4M10.4 28h11.2c2.24 0 3.36 0 4.216-.436a3.991 3.991 0 0 0 1.748-1.748C28 24.96 28 23.84 28 21.6v-.533c0-2.24 0-3.36-.436-4.216a3.991 3.991 0 0 0-1.748-1.748c-.856-.436-1.976-.436-4.216-.436H10.4c-2.24 0-3.36 0-4.216.436a3.996 3.996 0 0 0-1.748 1.748C4 17.707 4 18.827 4 21.067v.533c0 2.24 0 3.36.436 4.216a3.991 3.991 0 0 0 1.748 1.748C7.04 28 8.16 28 10.4 28z"/></symbol><symbol id="icon-x-close" viewBox="0 0 32 32"><path stroke-linecap="round" stroke-linejoin="round" stroke-width="3.429" d="M24 8 8 24M8 8l16 16"/></symbol><symbol id="icon-align-left" viewBox="0 0 32 32"><path stroke-linecap="round" stroke-linejoin="round" stroke-width="2.286" d="M22.667 13.333H4M28 8H4m24 10.667H4M22.667 24H4"/></symbol><symbol id="icon-trash" viewBox="0 0 32 32"><path stroke-linecap="round" stroke-linejoin="round" stroke-width="2.909" d="M12 4h8M4 8h24m-2.667 0-.935 14.026c-.14 2.104-.21 3.157-.665 3.954a4 4 0 0 1-1.731 1.619c-.826.4-1.881.4-3.99.4h-4.025c-2.109 0-3.163 0-3.99-.4a4.005 4.005 0 0 1-1.731-1.619c-.455-.798-.525-1.85-.665-3.954L6.666 8m6.667 6v6.667M18.667 14v6.667"/></symbol><symbol id="icon-user" viewBox="0 0 32 32"><path d="M5.333 29.333a10.662 10.662 0 0 1 18.208-7.543c2 2 3.124 4.714 3.124 7.543H5.332zm10.667-12c-4.42 0-8-3.58-8-8s3.58-8 8-8 8 3.58 8 8-3.58 8-8 8z"/></symbol><symbol id="icon-book-1" viewBox="0 0 34 32"><path d="M33.311 7.713a15.859 15.859 0 0 0-2.281-1.001v19.742a15.182 15.182 0 0 0-5.43-1.017c-2.948 0-5.865.886-8.533 2.593V8.174c-2.514-1.526-5.415-2.429-8.533-2.429A16.2 16.2 0 0 0 .823 7.714c-.512.263-.822.837-.822 1.444v19.824c0 .952.729 1.625 1.552 1.625.248 0 .496-.066.745-.197 1.877-1.034 3.987-1.69 6.237-1.69 3.212 0 6.175 1.346 8.533 3.282 2.358-1.936 5.322-3.282 8.533-3.282 2.25 0 4.36.656 6.237 1.707.248.131.496.197.745.197.807 0 1.551-.673 1.551-1.625V9.159c0-.607-.31-1.182-.822-1.444zm-19.347 18.74c-1.769-.673-3.584-1.017-5.43-1.017s-3.662.345-5.43 1.017V10.19a13.166 13.166 0 0 1 5.43-1.165c1.862 0 3.708.41 5.43 1.182v16.246zM27.927 0l-7.758 8.205v15.59l7.758-7.385V0z"/></symbol><symbol id="icon-book-2" viewBox="0 0 35 32"><path d="M34.352 7.713A16.665 16.665 0 0 0 32 6.712v19.742a16.089 16.089 0 0 0-5.6-1.017c-3.04 0-6.048.886-8.8 2.593V8.174c-2.592-1.526-5.584-2.429-8.8-2.429-2.864 0-5.568.722-7.952 1.969C.32 7.977 0 8.551 0 9.158v19.824a1.6 1.6 0 0 0 1.6 1.625c.256 0 .512-.066.768-.197 1.936-1.034 4.112-1.69 6.432-1.69 3.312 0 6.368 1.346 8.8 3.282 2.432-1.936 5.488-3.282 8.8-3.282 2.32 0 4.496.656 6.432 1.707.256.131.512.197.768.197.832 0 1.6-.673 1.6-1.625V9.159c0-.607-.32-1.182-.848-1.444zM14.4 26.453c-1.824-.673-3.696-1.017-5.6-1.017s-3.776.345-5.6 1.017V10.19a13.941 13.941 0 0 1 5.6-1.165c1.92 0 3.824.41 5.6 1.182v16.246zM28.8 0l-8 8.205v15.59l8-7.385V0z"/></symbol><symbol id="icon-book-3" viewBox="0 0 36 32"><path d="M34.699 7.713a16.911 16.911 0 0 0-2.376-1.001v19.741a16.395 16.395 0 0 0-5.657-1.017c-3.071 0-6.109.886-8.889 2.593V8.173c-2.618-1.526-5.64-2.429-8.889-2.429-2.893 0-5.624.722-8.032 1.969-.533.263-.857.837-.857 1.444v19.824c0 .952.76 1.625 1.616 1.625.259 0 .517-.066.776-.197 1.956-1.034 4.154-1.69 6.497-1.69 3.345 0 6.432 1.346 8.889 3.282 2.457-1.936 5.543-3.282 8.889-3.282 2.343 0 4.541.656 6.497 1.707.259.131.517.197.776.197.84 0 1.616-.673 1.616-1.625V9.158c0-.607-.323-1.181-.857-1.444zm-20.154 18.74c-1.842-.673-3.733-1.017-5.657-1.017s-3.814.345-5.657 1.017V10.19a14.205 14.205 0 0 1 5.657-1.165c1.939 0 3.863.41 5.657 1.181v16.246zM29.091 0 21.01 8.205v15.59l8.081-7.385V0z"/></symbol><symbol id="icon-book-4" viewBox="0 0 35 32"><path d="M34.352 7.713A16.665 16.665 0 0 0 32 6.712v19.742a16.089 16.089 0 0 0-5.6-1.017c-3.04 0-6.048.886-8.8 2.593V8.174c-2.592-1.526-5.584-2.429-8.8-2.429-2.864 0-5.568.722-7.952 1.969C.32 7.977 0 8.551 0 9.158v19.824a1.6 1.6 0 0 0 1.6 1.625c.256 0 .512-.066.768-.197 1.936-1.034 4.112-1.69 6.432-1.69 3.312 0 6.368 1.346 8.8 3.282 2.432-1.936 5.488-3.282 8.8-3.282 2.32 0 4.496.656 6.432 1.707.256.131.512.197.768.197.832 0 1.6-.673 1.6-1.625V9.159c0-.607-.32-1.182-.848-1.444zM14.4 26.453c-1.824-.673-3.696-1.017-5.6-1.017s-3.776.345-5.6 1.017V10.19a13.941 13.941 0 0 1 5.6-1.165c1.92 0 3.824.41 5.6 1.182v16.246zM28.8 0l-8 8.205v15.59l8-7.385V0z"/></symbol><symbol id="icon-Switcher-2" viewBox="0 0 50 32"><path d="M2.37 14.222C2.37 7.676 7.676 2.37 14.222 2.37h23.704c6.546 0 11.852 5.306 11.852 11.852s-5.306 11.852-11.852 11.852H14.222c-6.546 0-11.852-5.306-11.852-11.852z"/><path d="M14.222 24.889c5.891 0 10.667-4.776 10.667-10.667S20.113 3.555 14.222 3.555 3.555 8.331 3.555 14.222s4.776 10.667 10.667 10.667z"/></symbol><symbol id="icon-Switcher-3" viewBox="0 0 52 32"><path d="M0 14.222C0 7.676 5.306 2.37 11.852 2.37h23.704c6.546 0 11.852 5.306 11.852 11.852s-5.306 11.852-11.852 11.852H11.852C5.306 26.074 0 20.768 0 14.222z"/><path d="M35.556 24.889c5.891 0 10.667-4.776 10.667-10.667S41.447 3.555 35.556 3.555 24.889 8.331 24.889 14.222s4.776 10.667 10.667 10.667z"/></symbol><symbol id="icon-logo-1" viewBox="0 0 98 32"><path fill="#f6f6f6" d="m0 1.714 14.592 14.439 13.98 14.133V1.715H.001z" style="fill:var(--color1,#f6f6f6)"/><path fill="#f6f6f6" d="m3.979 5.49 10.663 10.561 10.051 10.255H3.979V5.49z" style="fill:var(--color1,#f6f6f6)"/><path fill="#4f2ee8" d="M24.762 26.373 14.099 15.812 4.048 5.557h20.714v20.816z" style="fill:var(--color2,#4f2ee8)"/><path fill="#4f2ee8" d="m8.265 9.776 12.143 12.143H8.265V9.776z" style="fill:var(--color2,#4f2ee8)"/><path fill="#f6f6f6" d="m8.265 9.776 12.143 12.143V9.776H8.265z" style="fill:var(--color1,#f6f6f6)"/><path d="M52.391 11.076c0-3.061-2.315-4.791-6.317-4.791h-8.36v19.029h8.822c4.03 0 6.617-1.89 6.617-5.562 0-2.848-1.743-4.312-3.785-4.658v-.053c1.607-.532 3.023-1.623 3.023-3.966zm-11.436 3.088v-5.19h5.201c1.933 0 2.995.931 2.995 2.608s-.871 2.582-3.186 2.582h-5.01zm0 2.368h5.691c2.042 0 3.268 1.091 3.268 3.034 0 1.783-.844 3.061-3.621 3.061h-5.337v-6.095zm20.512 9.182c-4.357 0-6.998-2.954-6.998-7.186s2.641-7.186 6.998-7.186 6.998 2.954 6.998 7.186c0 4.232-2.641 7.186-6.998 7.186zm0-2.289c2.723 0 4.139-2.103 4.139-4.897 0-2.821-1.416-4.897-4.139-4.897s-4.139 2.076-4.139 4.897c0 2.794 1.416 4.897 4.139 4.897zm15.237 2.289c-4.357 0-6.998-2.954-6.998-7.186s2.641-7.186 6.998-7.186 6.998 2.954 6.998 7.186-2.641 7.186-6.998 7.186zm0-2.289c2.723 0 4.139-2.103 4.139-4.897 0-2.821-1.416-4.897-4.139-4.897s-4.139 2.076-4.139 4.897c0 2.794 1.416 4.897 4.139 4.897zm8.974-17.139v19.029h2.859v-4.924l1.933-1.783 4.384 6.707h3.431l-5.854-8.543 5.283-5.057h-3.513l-5.664 5.456V6.286h-2.859z" style="fill:var(--color3,#000)"/></symbol><symbol id="icon-logo" viewBox="0 0 31 32"><path fill="#f6f6f6" d="m0 .615 15.714 15.549 15.055 15.22V.615H0z" style="fill:var(--color1,#f6f6f6)"/><path fill="#f6f6f6" d="m4.285 4.681 11.484 11.374 10.824 11.044H4.285V4.681z" style="fill:var(--color1,#f6f6f6)"/><path fill="#4f2ee8" d="M26.666 27.171 15.183 15.797 4.359 4.753h22.308v22.418z" style="fill:var(--color2,#4f2ee8)"/><path fill="#4f2ee8" d="m8.901 9.297 13.077 13.077H8.901V9.297z" style="fill:var(--color2,#4f2ee8)"/><path fill="#f6f6f6" d="m8.901 9.297 13.077 13.077V9.297H8.901z" style="fill:var(--color1,#f6f6f6)"/></symbol><symbol id="icon-arrow-back" viewBox="0 0 32 32"><path d="M4.5 19.6 15.7 8.367c.133-.133.278-.228.433-.283s.322-.084.5-.084.344.028.5.084c.156.055.3.149.433.283L28.799 19.6c.311.311.467.7.467 1.167s-.167.867-.5 1.2c-.333.333-.722.5-1.167.5s-.833-.167-1.167-.5l-9.8-9.8-9.8 9.8c-.311.311-.694.467-1.149.467s-.851-.167-1.184-.5-.5-.722-.5-1.167c0-.444.167-.833.5-1.167z"/></symbol><symbol id="icon-Book" viewBox="0 0 94 32"><path d="M22.831 8.341c0-4.761-3.6-7.452-9.827-7.452H0V30.49h13.724c6.269 0 10.293-2.939 10.293-8.653 0-4.43-2.711-6.707-5.888-7.245v-.083c2.499-.828 4.702-2.525 4.702-6.169zM5.04 13.143V5.07h8.09c3.007 0 4.659 1.449 4.659 4.057s-1.355 4.016-4.956 4.016H5.039zm0 3.685h8.853c3.177 0 5.083 1.697 5.083 4.72 0 2.774-1.313 4.761-5.633 4.761H5.041v-9.481zm31.909 14.283c-6.777 0-10.886-4.595-10.886-11.178S30.172 8.755 36.949 8.755s10.886 4.595 10.886 11.178c0 6.583-4.109 11.178-10.886 11.178zm0-3.56c4.236 0 6.438-3.271 6.438-7.618 0-4.388-2.203-7.618-6.438-7.618s-6.438 3.229-6.438 7.618c0 4.347 2.203 7.618 6.438 7.618zm23.702 3.56c-6.777 0-10.886-4.595-10.886-11.178S53.874 8.755 60.651 8.755c6.777 0 10.886 4.595 10.886 11.178s-4.109 11.178-10.886 11.178zm0-3.56c4.236 0 6.438-3.271 6.438-7.618 0-4.388-2.203-7.618-6.438-7.618s-6.438 3.229-6.438 7.618c0 4.347 2.203 7.618 6.438 7.618zM74.611.889V30.49h4.447v-7.659l3.007-2.774 6.82 10.433h5.337L85.115 17.2l8.217-7.866h-5.464l-8.81 8.487V.888h-4.447z"/></symbol><symbol id="icon-gerb" viewBox="0 0 20 32"><path d="M9.005 30.888a8.64 8.64 0 0 1-3.414-5.351H0V2.42c2.991 1.443 5.153 4.599 5.388 7.876l.846 6.493-.407-.045c-.893 0-1.676.812-1.676 1.608 0 .752.595 1.383 1.378 1.548l1.018.226c1.676-3.051 2.631-6.042 2.631-8.973 0-2.645-.36-5.291-.423-7.996 0-1.202.486-2.3 1.253-3.156.783.857 1.253 1.954 1.253 3.156 0 2.705-.423 5.351-.423 7.996 0 2.931.955 5.922 2.631 8.973l1.018-.226c.783-.165 1.378-.812 1.378-1.548 0-.812-.783-1.608-1.676-1.608l-.423.06.846-6.493c.423-3.277 2.396-6.448 5.388-7.876v23.117h-5.576c-.423 2.179-1.613 4.148-3.414 5.351-.423.286-.783.631-1.018 1.097-.219-.466-.579-.812-.987-1.112zM2.647 17.556c.235-.857.893-1.608 1.738-2.074l-.658-5.351a8.288 8.288 0 0 0-2.036-4.374v11.784h.955v.015zm2.819 6.373c0-.812.125-1.548.298-2.3l-.783-.18c-1.143-.346-2.036-1.203-2.334-2.3h-.955v4.78h3.774zm3.712 0c0-.977-.783-1.834-1.801-1.954-.172.631-.298 1.263-.298 1.954h2.099zm0 1.623H7.314c.298 1.263.955 2.42 1.864 3.397v-3.397zm2.631-5.005c-.72-1.262-1.378-2.585-1.801-3.968-.423 1.383-1.081 2.706-1.801 3.968.72.165 1.316.631 1.801 1.157.486-.526 1.081-.992 1.801-1.157zm1.143 3.382c0-.691-.125-1.323-.297-1.954-1.018.12-1.801.977-1.801 1.954h2.099zm-.235 1.623h-1.864v3.397c.908-.992 1.566-2.134 1.864-3.397zm5.623-1.623v-4.78h-.955c-.298 1.097-1.206 1.954-2.334 2.3l-.783.18c.172.752.298 1.488.298 2.3h3.774zm0-6.373V5.757c-1.081 1.202-1.864 2.706-2.036 4.374l-.658 5.351c.846.466 1.504 1.203 1.739 2.074h.955z"/></symbol><symbol id="icon-icon-sign-up" viewBox="0 0 32 32"><path stroke-linecap="round" stroke-linejoin="round" stroke-width="3.2" d="M5.333 16h21.333m.001 0-8-8m8 8-8 8"/></symbol><symbol id="icon-uil_cart" viewBox="0 0 32 32"><path d="M25.334 9.333h-4V8a5.332 5.332 0 1 0-10.666 0v1.333h-4a1.335 1.335 0 0 0-1.334 1.334v14.667a4.003 4.003 0 0 0 4 4h13.333a4.003 4.003 0 0 0 4-4V10.667a1.335 1.335 0 0 0-1.334-1.334zM13.334 8a2.668 2.668 0 0 1 5.334 0v1.333h-5.333V8zM24 25.333a1.335 1.335 0 0 1-1.334 1.334H9.333a1.335 1.335 0 0 1-1.334-1.334V12h2.667v1.333a1.335 1.335 0 0 0 2.277.943c.25-.251.39-.589.39-.943V12h5.333v1.333a1.335 1.335 0 0 0 2.277.943c.25-.251.391-.589.391-.943V12h2.667v13.333z"/></symbol><symbol id="icon-Vector-Stephen" viewBox="0 0 56 32"><path d="M25.395 21.134a3.675 3.675 0 0 0 2.603 1.085 3.67 3.67 0 0 0 2.603-1.085l16.794-16.83a3.675 3.675 0 0 1 2.603-1.085 3.67 3.67 0 0 1 2.603 6.255l-16.83 16.83a11 11 0 0 1-15.546 0L3.395 9.474a3.669 3.669 0 0 1-.791-3.975A3.659 3.659 0 0 1 4.588 3.5a3.651 3.651 0 0 1 2.82 0c.447.186.852.459 1.193.803l16.793 16.83z"/></symbol><symbol id="icon-Vector-Support" viewBox="0 0 56 32"><path d="M25.395 21.134a3.675 3.675 0 0 0 2.603 1.085 3.67 3.67 0 0 0 2.603-1.085l16.794-16.83a3.675 3.675 0 0 1 2.603-1.085 3.67 3.67 0 0 1 2.603 6.255l-16.83 16.83a11 11 0 0 1-15.546 0L3.395 9.474a3.669 3.669 0 0 1-.791-3.975A3.659 3.659 0 0 1 4.588 3.5a3.651 3.651 0 0 1 2.82 0c.447.186.852.459 1.193.803l16.793 16.83z"/></symbol><symbol id="icon-logo-002" viewBox="0 0 31 32"><path fill="#f6f6f6" d="m0 .615 15.714 15.549 15.055 15.22V.615H0z" style="fill:var(--color1,#f6f6f6)"/><path fill="#f6f6f6" d="m4.285 4.681 11.484 11.374 10.824 11.044H4.285V4.681z" style="fill:var(--color1,#f6f6f6)"/><path fill="#4f2ee8" d="M26.666 27.171 15.183 15.797 4.359 4.753h22.308v22.418z" style="fill:var(--color2,#4f2ee8)"/><path fill="#4f2ee8" d="m8.901 9.297 13.077 13.077H8.901V9.297z" style="fill:var(--color2,#4f2ee8)"/><path fill="#f6f6f6" d="m8.901 9.297 13.077 13.077V9.297H8.901z" style="fill:var(--color1,#f6f6f6)"/></symbol><symbol id="arrow-narrow-right" viewBox="0 0 32 32"><path fill="none" stroke-linecap="round" stroke-linejoin="round" stroke-width="3.2" d="M5.333 16h21.333m.001 0-8-8m8 8-8 8"/></symbol><symbol id="icon-arrow-down-icon" viewBox="0 0 32 32"><path d="M15.055 17.868a1.328 1.328 0 0 0 1.89.001l6.109-6.121a1.333 1.333 0 0 1 1.89 1.88l-6.119 6.121c-.724.723-1.723 1.169-2.826 1.169s-2.103-.447-2.826-1.169l-6.121-6.121a1.334 1.334 0 1 1 1.894-1.88l6.106 6.119z"/></symbol><symbol id="icon-arms-icon" viewBox="0 0 20 32"><path d="M9.005 30.888A8.656 8.656 0 0 1 5.6 25.592l-.009-.055H0V2.42c2.991 1.443 5.153 4.6 5.388 7.876l.845 6.493-.407-.045c-.893 0-1.676.812-1.676 1.608 0 .752.595 1.383 1.379 1.548l1.018.226c1.675-3.051 2.63-6.042 2.63-8.973 0-2.646-.36-5.291-.422-7.997 0-1.202.485-2.3 1.253-3.156.783.857 1.253 1.954 1.253 3.156 0 2.706-.423 5.351-.423 7.997 0 2.93.955 5.922 2.631 8.973l1.018-.226c.783-.165 1.378-.811 1.378-1.548 0-.811-.783-1.608-1.675-1.608l-.423.06.845-6.493C15.035 7.034 17.01 3.863 20 2.435v23.117h-5.576c-.422 2.18-1.613 4.148-3.414 5.35-.423.286-.783.632-1.018 1.098-.22-.466-.58-.812-.987-1.112zM2.647 17.556c.235-.857.893-1.609 1.738-2.075l-.658-5.35a8.283 8.283 0 0 0-2.043-4.382l.007.008V17.54h.956v.015zm2.819 6.373c0-.812.125-1.548.298-2.3l-.784-.18c-1.143-.346-2.036-1.203-2.333-2.3H1.69v4.78h3.775zm3.712 0c0-.977-.783-1.834-1.801-1.954-.173.63-.298 1.262-.298 1.954h2.099zm0 1.623H7.314c.298 1.262.955 2.42 1.864 3.397v-3.397zm2.63-5.005c-.72-1.263-1.377-2.585-1.8-3.968-.423 1.383-1.08 2.705-1.801 3.968.72.165 1.315.631 1.8 1.157.486-.526 1.082-.992 1.802-1.157zm1.144 3.382c0-.692-.125-1.323-.297-1.954-1.018.12-1.801.977-1.801 1.954h2.098zm-.235 1.623h-1.863v3.397c.908-.992 1.566-2.135 1.863-3.397zm5.623-1.623v-4.78h-.956c-.297 1.097-1.206 1.954-2.333 2.3l-.783.18c.172.752.297 1.488.297 2.3h3.775zm0-6.373v-11.8c-1.08 1.203-1.864 2.706-2.036 4.375l-.658 5.35c.846.466 1.504 1.203 1.738 2.075h.956z"/></symbol><symbol id="ri-user" viewBox="0 0 32 32"><path fill="#4f2ee8" style="fill:var(--color1,#4f2ee8)" d="M5.334 29.334c.107-5.81 4.841-10.478 10.666-10.478s10.56 4.669 10.666 10.468v.01H5.334zm10.666-12h-.002A7.998 7.998 0 0 1 8 9.336v-.004a7.998 7.998 0 0 1 7.998-7.998h.004A7.998 7.998 0 0 1 24 9.332v.004a7.998 7.998 0 0 1-7.998 7.998H16z"/></symbol><symbol id="icon-heart" viewBox="0 0 32 32"><path fill="#4f2ee8" style="fill:var(--color1,#4f2ee8)" d="m16 30.144-2.24-2.217C5.44 20.64 0 15.726 0 9.71 0 4.793 3.84.995 8.8.995c2.72.002 5.44 1.269 7.2 3.326A9.64 9.64 0 0 1 23.195.998h.005c4.96 0 8.8 3.801 8.8 8.711 0 6.021-5.44 10.933-13.76 18.217L16 30.145z"/></symbol><symbol id="icon-fi-ss-caret-down" viewBox="0 0 28 32"><path d="M5.898 12h16.513l-7.423 8.391c-.221.25-.521.39-.834.39s-.613-.14-.834-.39L5.898 12z"/></symbol><symbol id="arrow-narrow-right-mobile-menu" viewBox="0 0 32 32"><path fill="none" stroke-linecap="round" stroke-linejoin="round" stroke-width="3.2" d="M5.333 16h21.333m.001 0-8-8m8 8-8 8"/></symbol><symbol id="arrow-narrow-right-sign-up" viewBox="0 0 32 32"><path fill="none" stroke-linecap="round" stroke-linejoin="round" stroke-width="3.2" d="M5.333 16h21.333m.001 0-8-8m8 8-8 8"/></symbol></defs></svg>